<svg xmlns="http://www.w3.org/2000/svg" viewBox="0 0 120 120" role="img" aria-label="Solana">
  <defs>
    <linearGradient id="solana-a" x1="24" x2="96" y1="82" y2="38" gradientUnits="userSpaceOnUse">
      <stop stop-color="#9945FF"/>
      <stop offset=".52" stop-color="#14F195"/>
      <stop offset="1" stop-color="#00FFA3"/>
    </linearGradient>
    <linearGradient id="solana-b" x1="24" x2="96" y1="61" y2="61" gradientUnits="userSpaceOnUse">
      <stop stop-color="#9945FF"/>
      <stop offset=".52" stop-color="#14F195"/>
      <stop offset="1" stop-color="#00FFA3"/>
    </linearGradient>
    <linearGradient id="solana-c" x1="24" x2="96" y1="38" y2="82" gradientUnits="userSpaceOnUse">
      <stop stop-color="#9945FF"/>
      <stop offset=".52" stop-color="#14F195"/>
      <stop offset="1" stop-color="#00FFA3"/>
    </linearGradient>
  </defs>
  <circle cx="60" cy="60" r="60" fill="#10131F"/>
  <path fill="url(#solana-a)" d="M36 77.5a5 5 0 0 1 3.5-1.5H94a2 2 0 0 1 1.4 3.4L84 90.8a5 5 0 0 1-3.5 1.5H26a2 2 0 0 1-1.4-3.4L36 77.5Z"/>
  <path fill="url(#solana-b)" d="M36 50.5a5 5 0 0 1 3.5-1.5H94a2 2 0 0 1 1.4 3.4L84 63.8a5 5 0 0 1-3.5 1.5H26a2 2 0 0 1-1.4-3.4L36 50.5Z"/>
  <path fill="url(#solana-c)" d="M36 23.5a5 5 0 0 1 3.5-1.5H94a2 2 0 0 1 1.4 3.4L84 36.8a5 5 0 0 1-3.5 1.5H26a2 2 0 0 1-1.4-3.4L36 23.5Z"/>
</svg>
